<svg id="Layer_1" data-name="Layer 1" xmlns="http://www.w3.org/2000/svg" viewBox="0 0 164.25 45.59"> <defs><style>.cls-1{fill:#231f20}.cls-2{fill:#006450}.cls-3{fill:#0071b9}</style></defs><title>Alamo-Logos</title><path class="cls-1" d="M55.44 0h.57v45.58h-.57zm99.29 33.25v6.15c0 .91-.32 1-1 1h-.22v.35h3.82v-.35h-.22c-.55 0-1-.1-1-1v-6.15H158c.77 0 .83.68.85 1.1l.34-.13v-.93c0-.31.08-.62.13-.93h-.28c0 .35-.31.36-.62.36h-5.82c-.31 0-.6 0-.69-.33h-.28a7 7 0 0 1-.07 1c0 .33-.09.66-.14 1h.35c.17-.84.21-1 1.07-1zM145.38 35a13.53 13.53 0 0 1-.09-1.92 13.5 13.5 0 0 0-2.87-.58c-2.37 0-4.45 1.5-4.45 4.07 0 2.89 1.92 4.3 4.51 4.3a6.73 6.73 0 0 0 2.64-.52 12.92 12.92 0 0 1 .29-1.86h-.32a2.35 2.35 0 0 1-2.35 1.92c-2.18 0-3.15-1.94-3.15-3.87s1-3.5 2.88-3.5A2.38 2.38 0 0 1 145 35zm-17 5.71h3.51v-.35h-.16c-.41 0-.85-.06-.85-.66v-6c0-.6.44-.66.85-.66h.16v-.34h-3.51v.3h.16c.41 0 .85.06.85.66v6c0 .6-.44.66-.85.66h-.16zm-12.65-1c0 .43-.39.62-.82.62h-.21v.35h3.67v-.35h-.21c-.53 0-.94 0-.94-.92V37h.76a32.34 32.34 0 0 0 2.39 3.73h2.21v-.35a1.29 1.29 0 0 1-1.12-.69l-2-2.95a2.17 2.17 0 0 0 1.6-2c0-1.63-1.29-2-2.74-2h-3.63V33h.21c.36 0 .82 0 .82.88zm1.47-6.61a5.77 5.77 0 0 1 .66 0 1.57 1.57 0 0 1 1.68 1.68c0 1.36-.62 1.8-1.77 1.8h-.56zm-13.09.11v6.19c0 .91-.32 1-1 1h-.22v.35h3.82v-.35h-.22c-.55 0-1-.1-1-1v-6.15h1.89c.77 0 .83.68.85 1.1l.35-.13v-.93c0-.31.08-.62.13-.93h-.28c0 .35-.31.36-.62.36H102c-.31 0-.6 0-.69-.33H101a7 7 0 0 1-.07 1c0 .33-.09.66-.14 1h.35c.17-.84.21-1 1.07-1zm-9.75 1.07a13.36 13.36 0 0 1-.12-1.65c-.36 0-1.34-.17-1.66-.17A2.32 2.32 0 0 0 90 34.89c0 2.77 3.38 2.14 3.38 4.18A1.31 1.31 0 0 1 92 40.38c-1.09 0-1.65-.85-1.78-1.83l-.32.07c.06.59.14 1.16.19 1.75a4.09 4.09 0 0 0 1.83.52 2.5 2.5 0 0 0 2.78-2.42c0-2.76-3.45-2.19-3.45-4.1a1.31 1.31 0 0 1 1.41-1.45A1.48 1.48 0 0 1 94 34.38zm-14.08 6.43h3.51v-.35h-.16c-.41 0-.85-.06-.85-.66v-6c0-.6.44-.66.85-.66h.16v-.34h-3.51v.3h.16c.42 0 .85.06.85.66v6c0 .6-.44.66-.85.66h-.16zm-14.37 0h4a4 4 0 0 0 4.27-4c0-2.41-1.74-4-4.57-4h-3.69V33h.16c.41 0 .85.06.85.66v6c0 .6-.44.66-.85.66h-.16zm2.49-7.56c.25 0 .52-.06.78-.06 1.84 0 3.38.76 3.38 3.8 0 1.77-1 3.41-3 3.41-.83 0-1.2-.1-1.2-.91zm95.49-12.64a13.35 13.35 0 0 1-.11-1.65c-.36 0-1.34-.17-1.66-.17a2.32 2.32 0 0 0-2.54 2.38c0 2.77 3.38 2.14 3.38 4.18a1.31 1.31 0 0 1-1.42 1.31c-1.09 0-1.65-.85-1.79-1.83l-.32.07c.06.59.14 1.16.19 1.75a4.08 4.08 0 0 0 1.83.52 2.5 2.5 0 0 0 2.79-2.42c0-2.76-3.45-2.19-3.45-4.1a1.31 1.31 0 0 1 1.42-1.45 1.48 1.48 0 0 1 1.36 1.46zm-17.21 6.39h6.16c.1-.61.24-1.22.39-1.83l-.32-.08c-.35 1.31-1 1.4-2.34 1.4-.74 0-1.4 0-1.4-.75V23h1.38c.79 0 .83.45.9 1.14l.35-.07v-2.66h-.35c-.07.62-.22 1-.91 1h-1.37v-3h1.6c1.21 0 1.35.6 1.4 1.35l.35-.09v-1.76h-5.82v.35h.16c.41 0 .85.06.85.65v6c0 .6-.44.66-.85.66h-.16zm-6.47-5.81a10.68 10.68 0 0 1-.14-2 6.14 6.14 0 0 1-1.3-.22 6.83 6.83 0 0 0-1.66-.21c-2.33 0-4.6 1.39-4.6 4.06s1.95 4.32 4.52 4.32a11.43 11.43 0 0 0 3.21-.5v-.21l-.26-.15v-1.71c0-.4.22-.59.62-.59h.15v-.35h-3.27v.35h.15c.43 0 .88.11.88.59v1.88a2.53 2.53 0 0 1-1.28.22c-2.2 0-3.11-2-3.11-3.92s1-3.44 3.07-3.44a2.4 2.4 0 0 1 2.67 1.91zm-20.45 5.81h6.16c.1-.61.24-1.22.39-1.83L126 25c-.35 1.31-1 1.4-2.34 1.4-.74 0-1.4 0-1.4-.75V23h1.38c.79 0 .83.45.9 1.14l.34-.07v-2.66h-.34c-.07.62-.22 1-.91 1h-1.37v-3h1.6c1.21 0 1.35.6 1.4 1.35l.35-.09v-1.76h-5.82v.35h.16c.41 0 .85.06.85.65v6c0 .6-.44.66-.85.66h-.16zm-10-7.07c0-.61.35-.62.78-.62h.29v-.35h-3.57v.35h.16c.41 0 .86.06.86.65v5.92c0 .71-.45.77-.86.77h-.16v.35h6c.14-.66.3-1.3.43-2h-.33a2.6 2.6 0 0 1-.36.83 1.66 1.66 0 0 1-1.1.62 8.45 8.45 0 0 1-1.52 0c-.37 0-.69-.18-.69-.64zm-12.5 0c0-.61.35-.62.78-.62h.29v-.35h-3.57v.35H95c.41 0 .86.06.86.65v5.92c0 .71-.45.77-.86.77h-.16v.35h6c.14-.66.3-1.3.43-2H101a2.6 2.6 0 0 1-.36.83 1.66 1.66 0 0 1-1.1.62 8.46 8.46 0 0 1-1.52 0c-.37 0-.69-.18-.69-.64zm-15.74 2.7c0-1.54.6-3.34 2.61-3.34s2.82 2 2.82 3.72-.39 3.65-2.62 3.65c-1.86 0-2.81-2-2.81-4m-1.61.4a4.07 4.07 0 0 0 4.31 4.13 4.22 4.22 0 0 0 4.35-4.41c0-2.45-2-4-4.41-4A4.19 4.19 0 0 0 80 22.94m-6.36-1.75a13.53 13.53 0 0 1-.09-1.92 13.56 13.56 0 0 0-2.87-.57c-2.37 0-4.45 1.5-4.45 4.07 0 2.89 1.92 4.31 4.51 4.31a6.71 6.71 0 0 0 2.63-.52 13.06 13.06 0 0 1 .29-1.86h-.32a2.35 2.35 0 0 1-2.35 1.92c-2.18 0-3.15-1.94-3.15-3.87s1-3.5 2.88-3.5a2.38 2.38 0 0 1 2.58 2zm51.17-12.47c0-1.54.6-3.34 2.61-3.34s2.82 2 2.82 3.72-.39 3.65-2.62 3.65c-1.87 0-2.81-2-2.81-4m-1.61.4a4.07 4.07 0 0 0 4.3 4.13 4.22 4.22 0 0 0 4.35-4.41c0-2.45-2-4-4.41-4a4.19 4.19 0 0 0-4.25 4.25m-14.27-4.07h-2.4v.35h.15c.51 0 1 .22 1 .86a20 20 0 0 1-.14 2l-.35 3.2c-.1.83-.14 1.22-1 1.25h-.16v.35h2.93v-.35h-.14a1.58 1.58 0 0 1-.74-.13c-.15-.1-.24-.29-.24-.65l.39-5.05 2.79 6.35h.28l2.93-6.48.32 4.86v.56c0 .51-.39.51-1 .54v.35h3.56v-.35c-.69 0-1-.07-1-.64l-.44-5.27a7.31 7.31 0 0 1-.06-.9c0-.51.73-.53 1.07-.53h.1v-.32h-2.39l-2.73 6zM96.76 9.6H94.6l1.07-3.26zm-2.37.64H97l.45 1.34a3.76 3.76 0 0 1 .23.83c0 .29-.45.33-.71.33h-.13v.35h3.32v-.35h-.07a.73.73 0 0 1-.76-.46c-.15-.35-.29-.77-.43-1.17l-2.12-6-.1-.29a.08.08 0 0 0-.08 0h-.09a6 6 0 0 1-1 .49 9.47 9.47 0 0 1-.51 1.4L93.19 12a1 1 0 0 1-1 .75h-.07v.35h2.63v-.35h-.13c-.38 0-.86-.06-.86-.4a4.63 4.63 0 0 1 .25-.9zM82.24 6c0-.61.35-.62.78-.62h.29v-.33h-3.57v.35h.16c.41 0 .86.06.86.66V12c0 .71-.45.77-.86.77h-.16v.35h6c.14-.66.3-1.3.43-2h-.33a2.57 2.57 0 0 1-.36.83 1.65 1.65 0 0 1-1.1.62 8.37 8.37 0 0 1-1.52 0c-.37 0-.69-.18-.69-.64zM70.48 9.6h-2.15l1.07-3.26zm-2.37.64h2.61l.45 1.34a3.74 3.74 0 0 1 .23.83c0 .29-.45.33-.71.33h-.13v.35h3.32v-.35h-.08a.73.73 0 0 1-.76-.46c-.15-.35-.29-.77-.43-1.17l-2.12-6-.1-.29a.08.08 0 0 0-.08 0h-.09a6 6 0 0 1-1 .49 9.83 9.83 0 0 1-.43 1.43L66.91 12a1 1 0 0 1-1 .75h-.07v.35h2.63v-.35h-.13c-.38 0-.86-.06-.86-.4a4.58 4.58 0 0 1 .25-.9z"/><path class="cls-2" d="M45 28a9.36 9.36 0 0 1-9.36-9.36v-.15h-3.25c-1.06-4.32-4.95-8.08-9.59-8.08s-8.54 3.77-9.6 8.08H9.94v.15A9.36 9.36 0 0 1 .59 28H0v17.59h45.58V27.94L45 28"/><path class="cls-3" d="M.18 24.91h.41a6.32 6.32 0 0 0 6.31-6.3v-3.2H11a13.17 13.17 0 0 1 11.79-8.08 13.16 13.16 0 0 1 11.76 8.08h4.13v3.19A6.32 6.32 0 0 0 45 24.92h.59V0H0v24.89z"/></svg>
