<?xml version="1.0" encoding="UTF-8"?> <svg xmlns="http://www.w3.org/2000/svg" xmlns:xlink="http://www.w3.org/1999/xlink" viewBox="0 0 298.95 86.21"><defs><radialGradient id="radial-gradient" cx="28.44" cy="12.1" r="63.43" gradientUnits="userSpaceOnUse"><stop offset="0" stop-color="#757aba"></stop><stop offset="1" stop-color="#18125a"></stop></radialGradient><linearGradient id="linear-gradient" x1="89.98" y1="58.87" x2="297.43" y2="58.87" gradientUnits="userSpaceOnUse"><stop offset="0" stop-color="#fff" stop-opacity="0"></stop><stop offset="0.08" stop-color="#d2d3e5" stop-opacity="0.21"></stop><stop offset="0.18" stop-color="#9fa0c8" stop-opacity="0.45"></stop><stop offset="0.29" stop-color="#7576af" stop-opacity="0.65"></stop><stop offset="0.42" stop-color="#55569c" stop-opacity="0.81"></stop><stop offset="0.56" stop-color="#3e3f8f" stop-opacity="0.92"></stop><stop offset="0.73" stop-color="#303287" stop-opacity="0.98"></stop><stop offset="1" stop-color="#2c2e85"></stop></linearGradient></defs><g id="Layer_2" data-name="Layer 2"><g id="Layer_1-2" data-name="Layer 1"><path d="M89.82,34.69H104l.26,4.21h-.18l-1-3.35c-1,0-1.81-.08-2.47-.08a19.46,19.46,0,0,0-4.23.39c-.07.61-.13,1.45-.19,2.52s-.1,1.89-.1,2.46,0,1.52.11,2.71a24.13,24.13,0,0,0,2.88.15,22.76,22.76,0,0,0,2.88-.15l.65-2.28h.18V47h-.18L102,44.53c-.5-.05-1-.09-1.45-.1s-.95,0-1.46,0-1.44,0-2.88.13c0,.93-.08,1.89-.08,2.86,0,.68,0,1.69.11,3s.16,2.38.26,3.12l3.32.46v.14h-10V54l3.2-.46c.13-.93.24-2.18.32-3.76s.12-2.9.12-4V42.12c0-.46,0-1.14,0-2s-.07-1.78-.12-2.63a19.26,19.26,0,0,0-.22-2.14l-3.25-.49Zm4,.52V53.65h.92V35.21Z" style="fill:#2c2e85"></path><path d="M117,34.41a11.9,11.9,0,0,1,4.9.94,9.75,9.75,0,0,1,3.39,2.48,10.2,10.2,0,0,1,1.94,3.24,9.83,9.83,0,0,1,.62,3.3,9.36,9.36,0,0,1-.7,3.55,9.93,9.93,0,0,1-2.06,3.18,10.1,10.1,0,0,1-3.37,2.31,11.36,11.36,0,0,1-4.48.86,11.23,11.23,0,0,1-6.06-1.55,9.87,9.87,0,0,1-3.67-3.83,9.31,9.31,0,0,1-.43-8.2,10,10,0,0,1,2.18-3.23,10.21,10.21,0,0,1,3.42-2.24A11.37,11.37,0,0,1,117,34.41Zm-.55.52V34.8a9,9,0,0,0-3.62.79,10.18,10.18,0,0,0-3.11,2.13,9.76,9.76,0,0,0-2.09,3.05,8.78,8.78,0,0,0-.76,3.6,8.89,8.89,0,0,0,1.26,4.5,9.91,9.91,0,0,0,3.47,3.55,9.6,9.6,0,0,0,4.88,1.45v-.14a9.33,9.33,0,0,1-4.56-1.61,9.23,9.23,0,0,1-3-3.43,9.37,9.37,0,0,1-1-4.24,10.07,10.07,0,0,1,.6-3.46,9.38,9.38,0,0,1,1.73-3,8.92,8.92,0,0,1,2.73-2.11A9.55,9.55,0,0,1,116.42,34.93Zm.63.41a7.09,7.09,0,0,0-3.81,1.08,7.54,7.54,0,0,0-2.78,3.11,10.54,10.54,0,0,0-1,4.79,10.36,10.36,0,0,0,1.12,5,7.51,7.51,0,0,0,2.88,3,7.26,7.26,0,0,0,9-1.3,7.81,7.81,0,0,0,1.68-2.76,10.41,10.41,0,0,0,.61-3.66,12.54,12.54,0,0,0-.64-4.41,8.42,8.42,0,0,0-1.87-2.89,6.59,6.59,0,0,0-2.39-1.54A8.09,8.09,0,0,0,117.05,35.34Zm.67-.54v.13a8.69,8.69,0,0,1,2.59.6,7.74,7.74,0,0,1,2.44,1.6A7.65,7.65,0,0,1,124.58,40a13.76,13.76,0,0,1,.28,7.64,8.84,8.84,0,0,1-1.3,2.84,7.36,7.36,0,0,1-2.34,2.16,8.63,8.63,0,0,1-3.47,1v.14a9.33,9.33,0,0,0,3.23-.73,8.09,8.09,0,0,0,2.71-1.87,8.72,8.72,0,0,0,1.88-3,10.59,10.59,0,0,0,.69-3.91,11.11,11.11,0,0,0-.71-4.15,8.45,8.45,0,0,0-2-3,8.65,8.65,0,0,0-5.87-2.45Z" style="fill:#2c2e85"></path><path d="M132.23,48.5V41.11q0-2.47-.32-5.85l-2.78-.44v-.13h9.69v.13l-3.51.44c-.09.62-.16,1.37-.21,2.23s-.1,1.8-.14,2.78-.06,1.77-.06,2.36v5.46a5.53,5.53,0,0,0,.79,3.14,4.29,4.29,0,0,0,2.08,1.69,8.23,8.23,0,0,0,2.87.49,6.05,6.05,0,0,0,4.19-1.36,5.6,5.6,0,0,0,1.52-4.38V42c0-1,0-2.2-.11-3.58s-.16-2.42-.26-3.14l-3.5-.44v-.13h9.63v.13l-2.71.44a21.8,21.8,0,0,0-.28,2.88c-.07,1.34-.1,2.47-.1,3.38V48a7.91,7.91,0,0,1-.36,2.55,4.64,4.64,0,0,1-1.12,1.81,5.81,5.81,0,0,1-1.08.87,6.36,6.36,0,0,1-1.45.63,10.7,10.7,0,0,1-1.92.38,22.77,22.77,0,0,1-2.56.12,15.16,15.16,0,0,1-4.34-.55,5.85,5.85,0,0,1-2.9-1.86A5.23,5.23,0,0,1,132.23,48.5ZM139.8,54v-.17a9.14,9.14,0,0,1-3.27-.76,4.88,4.88,0,0,1-2.2-1.91,5.8,5.8,0,0,1-.79-3.1V35.18h-.93V48.5a4.81,4.81,0,0,0,1.72,3.89Q136.05,53.82,139.8,54Zm1.74-.17V54a9.4,9.4,0,0,0,2.71-.51,5.14,5.14,0,0,0,1.89-1.17,4.74,4.74,0,0,0,1.13-1.88,8.63,8.63,0,0,0,.37-2.62V35.18h-.93V47.77a6.6,6.6,0,0,1-1.22,4.2A5.56,5.56,0,0,1,141.54,53.81Z" style="fill:#2c2e85"></path><path d="M152.51,34.82v-.13h6.71c.44.6,1,1.33,1.72,2.18s1.33,1.58,1.88,2.19l6,6.62,1.84,2q.66.7,1.71,1.71c.05-.61.09-1.18.1-1.71s0-1,0-1.5V40.43a36,36,0,0,0-.3-5.12l-3.23-.49v-.13h7.9v.13l-3.23.52a36.39,36.39,0,0,0-.25,4.76V54.66h-.13q-2-2.58-4-4.83l-8.13-9.06q-1.8-1.92-3.08-3.06c-.12,1.2-.18,2.32-.18,3.37v8.41a35.55,35.55,0,0,0,.26,4l3.38.49v.14h-8.08V54l3.27-.46a23.73,23.73,0,0,0,.22-2.72c0-1.18.07-2.23.07-3.15V41.16c0-.77,0-1.53,0-2.29s-.08-1.51-.15-2.25L155,35.31Zm4,.36L172.53,53V51.77L157.6,35.18Z" style="fill:#2c2e85"></path><path d="M177.29,34.69h10.93a13.66,13.66,0,0,1,5.2.88,8.59,8.59,0,0,1,5.17,5.4,11.33,11.33,0,0,1,.53,3.4,10.81,10.81,0,0,1-.69,3.9,9.11,9.11,0,0,1-2,3.12,9,9,0,0,1-3.08,2,10.45,10.45,0,0,1-3.9.71H177.21V54l3.22-.46a29.31,29.31,0,0,0,.36-3.74c.09-1.74.14-3.11.14-4.1V42.22a61.93,61.93,0,0,0-.35-6.91l-3.29-.49Zm4,.52V53.62h.93V35.21Zm2.29,6.14V49.1a34.09,34.09,0,0,0,.18,3.48,7.66,7.66,0,0,0,1.93.59,13,13,0,0,0,2.15.18,8,8,0,0,0,2.94-.56,7.81,7.81,0,0,0,4.47-4.48A10.17,10.17,0,0,0,196,44.4a9.78,9.78,0,0,0-.75-4,7.34,7.34,0,0,0-2-2.78,8.5,8.5,0,0,0-3-1.6,11.8,11.8,0,0,0-3.54-.52,10.26,10.26,0,0,0-2.71.33c-.06.34-.11.82-.16,1.44s-.09,1.36-.12,2.2S183.6,40.94,183.6,41.35ZM186.12,35v.13a16.53,16.53,0,0,1,3.46.33,10.06,10.06,0,0,1,2.58.91,7.93,7.93,0,0,1,1.8,1.33,8.15,8.15,0,0,1,1.35,1.8,9.75,9.75,0,0,1,.88,2.27,10.4,10.4,0,0,1,.33,2.65,9.49,9.49,0,0,1-1.33,5.19,8.28,8.28,0,0,1-3.27,3.08,8.19,8.19,0,0,1-3.67,1h-1v.14h1a9.61,9.61,0,0,0,5-1.27,8.38,8.38,0,0,0,3.21-3.42,10.16,10.16,0,0,0,1.09-4.64,9.68,9.68,0,0,0-.78-4,9.46,9.46,0,0,0-1.95-2.9Q192.33,35,186.92,35Z" style="fill:#2c2e85"></path><path d="M212,34.49l5.75,13.72a49.33,49.33,0,0,0,2.6,5.33l2.21.46v.14h-9.38V54l3.61-.46a15.63,15.63,0,0,0-.73-2.86A16.63,16.63,0,0,0,214.84,48h-8.33l-.86,2.2c-.21.58-.42,1.18-.62,1.8a9.7,9.7,0,0,0-.39,1.55l3.48.46v.14h-7.43V54l2.45-.46a27.57,27.57,0,0,0,1.63-3.4l6.15-15.65Zm-1.41,3.73c-.24.47-.55,1.16-.95,2.06s-.75,1.75-1.07,2.54-.65,1.63-1,2.52-.58,1.47-.7,1.76a18,18,0,0,0,1.83.14c.7,0,1.36,0,2,0a32.78,32.78,0,0,0,3.81-.18c-.34-1-.91-2.43-1.71-4.27S211.23,39.45,210.56,38.22Zm.21-1.11,6.9,16.51h.89L211.21,36Z" style="fill:#2c2e85"></path><path d="M224,34.69h11.53q1.05,0,1.92-.06c.59,0,1.34-.1,2.26-.19l.31,4.3h-.16l-1-3.13a14.59,14.59,0,0,0-2.52-.22,16.22,16.22,0,0,0-2.06.12,17.23,17.23,0,0,0-2,.4c-.08.83-.13,1.62-.16,2.39s-.07,1.47-.08,2.12,0,1.1,0,1.34v4.41q0,1.74.12,3.9c.08,1.43.18,2.58.29,3.44l3.28.49v.14h-10V54l3.23-.49a51.18,51.18,0,0,0,.41-7.1V41.6q0-1.49-.06-2.94c-.05-1-.12-1.88-.23-2.75a13.65,13.65,0,0,0-1.79-.34c-.68-.08-1.33-.13-1.94-.15a17,17,0,0,0-2.86.24l-.95,3.16h-.19l.29-4.36c.27,0,.65.06,1.16.13A9.23,9.23,0,0,0,224,34.69Zm5.74.49V53.62h.89V35.18Z" style="fill:#2c2e85"></path><path d="M250.81,54.14h-10V54l3.24-.49c.15-1.1.26-2.44.34-4s.11-3.09.11-4.59V42.69a54.53,54.53,0,0,0-.4-7.4l-3.29-.47v-.13h10v.13l-3.32.47c-.1.86-.17,1.63-.21,2.33s-.09,1.54-.12,2.52-.06,1.92-.06,2.79v2.93c0,.54,0,1.43.06,2.65s.1,2.27.16,3.12.13,1.48.2,1.91l3.29.46Zm-6-18.93V53.62h.93V35.21Z" style="fill:#2c2e85"></path><path d="M262.63,34.41a11.86,11.86,0,0,1,4.9.94,9.79,9.79,0,0,1,3.4,2.48,10.38,10.38,0,0,1,1.94,3.24,9.81,9.81,0,0,1,.61,3.3,9.54,9.54,0,0,1-.69,3.55,10.28,10.28,0,0,1-2.06,3.18,10.14,10.14,0,0,1-3.38,2.31,12.4,12.4,0,0,1-10.54-.69,9.91,9.91,0,0,1-3.66-3.83,9.27,9.27,0,0,1-.44-8.2,10.13,10.13,0,0,1,2.18-3.23,10.41,10.41,0,0,1,3.42-2.24A11.37,11.37,0,0,1,262.63,34.41Zm-.54.52V34.8a9.1,9.1,0,0,0-3.63.79,10.31,10.31,0,0,0-3.11,2.13,9.93,9.93,0,0,0-2.09,3.05,8.85,8.85,0,0,0,.5,8.1,9.94,9.94,0,0,0,3.48,3.55,9.56,9.56,0,0,0,4.87,1.45v-.14a9.29,9.29,0,0,1-4.55-1.61,9.14,9.14,0,0,1-3-3.43,9.24,9.24,0,0,1-1-4.24,10.07,10.07,0,0,1,.6-3.46,9.36,9.36,0,0,1,1.72-3,9.17,9.17,0,0,1,2.73-2.11A9.54,9.54,0,0,1,262.09,34.93Zm.62.41a7.08,7.08,0,0,0-3.8,1.08,7.41,7.41,0,0,0-2.78,3.11,10.41,10.41,0,0,0-1,4.79,10.36,10.36,0,0,0,1.12,5,7.51,7.51,0,0,0,2.88,3,7.36,7.36,0,0,0,3.64,1,7.24,7.24,0,0,0,2.89-.58,7.44,7.44,0,0,0,2.45-1.71,8.11,8.11,0,0,0,1.68-2.76,10.64,10.64,0,0,0,.6-3.66,12.32,12.32,0,0,0-.64-4.41,8.28,8.28,0,0,0-1.87-2.89,6.55,6.55,0,0,0-2.38-1.54A8.11,8.11,0,0,0,262.71,35.34Zm.68-.54v.13a8.76,8.76,0,0,1,2.59.6A7.42,7.42,0,0,1,270.24,40a13.91,13.91,0,0,1,.29,7.64,9.06,9.06,0,0,1-1.3,2.84,7.29,7.29,0,0,1-2.35,2.16,8.58,8.58,0,0,1-3.47,1v.14a9.28,9.28,0,0,0,3.23-.73,8.12,8.12,0,0,0,2.72-1.87,8.87,8.87,0,0,0,1.88-3,10.59,10.59,0,0,0,.69-3.91,11.1,11.1,0,0,0-.72-4.15,8.57,8.57,0,0,0-1.95-3,8.65,8.65,0,0,0-5.87-2.45Z" style="fill:#2c2e85"></path><path d="M274.64,34.82v-.13h6.71c.44.6,1,1.33,1.72,2.18s1.33,1.58,1.88,2.19l5.95,6.62,1.84,2c.44.47,1,1,1.7,1.71.06-.61.09-1.18.11-1.71s0-1,0-1.5V40.43a34.42,34.42,0,0,0-.31-5.12L291,34.82v-.13H299v.13l-3.23.52a36.39,36.39,0,0,0-.25,4.76V54.66h-.14q-2-2.58-4-4.83l-8.13-9.06q-1.8-1.92-3.08-3.06a31.28,31.28,0,0,0-.19,3.37v8.41a35.82,35.82,0,0,0,.27,4l3.37.49v.14h-8.07V54l3.26-.46a21.29,21.29,0,0,0,.23-2.72c0-1.18.07-2.23.07-3.15V41.16c0-.77,0-1.53,0-2.29s-.08-1.51-.15-2.25l-1.77-1.31Zm4,.36L294.66,53V51.77L279.73,35.18Z" style="fill:#2c2e85"></path><circle cx="43.1" cy="43.1" r="43.1" style="fill:url(#radial-gradient)"></circle><path d="M16.9,34.82l-3.78.49a17.23,17.23,0,0,0,.32,2.75c.22,1.2.47,2.28.74,3.23l1.28,4.39a32.59,32.59,0,0,0,1.06,3.16q1.21-2.6,1.94-4.39l2.28-5.68c.81-2.08,1.31-3.51,1.52-4.28h.25c.11.25.32.78.64,1.6s.61,1.53.87,2.16l3.22,7c.49,1.14,1.12,2.43,1.87,3.87.28-.71.72-2,1.32-4l1.51-5.35c.21-.71.4-1.47.56-2.28s.27-1.58.34-2.29L29,34.82v-.13h7.81v.13l-2.37.47c-.29.68-.57,1.42-.85,2.2s-.54,1.66-.81,2.61L30.4,48.27c-.39,1.36-.74,2.62-1.06,3.79s-.52,2-.63,2.6h-.22c-.09-.26-.22-.62-.39-1.07l-.4-1.06c-.09-.26-.22-.57-.38-1s-.33-.74-.49-1.08l-3.72-8.3c-.76-1.57-1.26-2.56-1.48-3a14,14,0,0,0-.8,1.66c-.35.83-.55,1.32-.61,1.49l-3.1,7.68c-.22.52-.4,1-.57,1.45s-.33.93-.52,1.43-.38,1.07-.6,1.72h-.21c-.16-.9-.57-2.53-1.23-4.91l-2.51-8.83a47.92,47.92,0,0,0-2-5.63l-2.31-.47v-.13H16.9Zm-6.66.39,4.95,17.37h.05l.44-1.27-4.57-16.1Zm12,2.14-.39,1.09,6.44,14.25.38-1.2Z" style="fill:#fff;stroke:#fff;stroke-miterlimit:10;stroke-width:0.25px"></path><path d="M37.05,34.82v-.13H51.2l.33,4.13h-.21l-1-3.24c-.75,0-1.59-.08-2.53-.08a19.06,19.06,0,0,0-4.13.36,39.75,39.75,0,0,0-.27,4.91c0,1.16,0,2.09.11,2.81q2.1.12,2.67.12a27.47,27.47,0,0,0,3.09-.18l.6-2.25h.23v5.65H49.9l-.62-2.39a22.38,22.38,0,0,0-2.55-.13,28.08,28.08,0,0,0-3.19.16,19.24,19.24,0,0,0-.11,3c0,1.25,0,2.29.07,3.11s.07,1.53.14,2.12a15,15,0,0,0,4.25.49,22.7,22.7,0,0,0,2.55-.12L51.51,50h.18l-.29,4.16H37.09V54l3.18-.46c.07-.36.13-.92.19-1.66s.11-1.58.15-2.5.08-1.71.1-2.33,0-1.17,0-1.64V42.06c0-.42,0-1,0-1.81s-.06-1.6-.12-2.44-.12-1.68-.22-2.52Zm4,.39V53.62H42V35.21Z" style="fill:#fff;stroke:#fff;stroke-miterlimit:10;stroke-width:0.25px"></path><path d="M52.69,34.69H63.81v.13l-4.24.44c.48.75.92,1.41,1.33,2s.87,1.19,1.36,1.8,1,1.27,1.61,2l1.81,2.1q1-1.07,2.4-2.61c.91-1,1.71-2,2.42-2.9a26.59,26.59,0,0,0,1.66-2.33l-4-.44v-.13H77v.13l-3.12.41c-.56.52-1.2,1.17-1.91,2s-1.47,1.67-2.27,2.63-1.48,1.82-2.07,2.58-1,1.31-1.18,1.64c.53.71,1.23,1.61,2.09,2.69s1.63,2,2.32,2.87,1.35,1.59,2,2.29S74,53.14,74.5,53.57L77,54v.14H66.17V54l4.23-.46a35.52,35.52,0,0,0-2.87-4.07c-1.18-1.47-2.33-2.82-3.44-4-.91.93-1.79,1.89-2.65,2.89s-1.64,2-2.35,2.88-1.27,1.69-1.7,2.33l4,.46v.14H52.62V54l3.06-.46q1.89-1.86,4.11-4.52c1.47-1.78,2.66-3.29,3.55-4.54q-1.29-1.71-2.63-3.41c-.9-1.13-1.82-2.23-2.75-3.32a31.76,31.76,0,0,0-2.31-2.49l-3-.44Zm3.66.45L71.4,53.62h1.08l-15-18.48Z" style="fill:#fff;stroke:#fff;stroke-miterlimit:10;stroke-width:0.25px"></path><path d="M76.85,67.13l-1.65,2a27.15,27.15,0,0,1-5.58,4.76,31.46,31.46,0,0,1-10.64,4,40.89,40.89,0,0,1-14.79-.1,50.7,50.7,0,0,1-16.45-6.17c-1.31-.86-2.67-1.66-4-2.62l-1.93-1.45-1-.73L19.91,66,18,64.38c-.65-.54-1.18-1.19-1.78-1.78s-1.2-1.2-1.74-1.86l-1.64-2a23,23,0,0,1-1.54-2.09c-.49-.71-1-1.42-1.48-2.16a47.24,47.24,0,0,1-2.53-4.65,25.32,25.32,0,0,1-1.08-2.45l-.92-2.54C5,44,4.86,43.12,4.62,42.25c-.11-.45-.25-.88-.33-1.33l-.22-1.35A28.48,28.48,0,0,1,8.51,18.23a27.53,27.53,0,0,1,8.34-7.44l1.22-.68a8.6,8.6,0,0,1,1.26-.61L21.9,8.44a37.68,37.68,0,0,1,5.36-1.3l1.35-.23c.46-.06.91-.08,1.36-.12.91,0,1.82-.16,2.72-.17l2.7,0c.9,0,1.78.16,2.67.23a49.88,49.88,0,0,1,5.22.89c.85.21,1.69.47,2.52.7a23,23,0,0,1,2.47.8,54.48,54.48,0,0,1,17,9.88A50.78,50.78,0,0,1,76.44,32.76a41,41,0,0,1,4.87,14,31.48,31.48,0,0,1-.38,11.37,27.54,27.54,0,0,1-2.7,6.82Zm0,0,1.36-2.22a27.13,27.13,0,0,0,2.66-6.82,30.08,30.08,0,0,0,.27-11.34A39,39,0,0,0,76.05,33a50.21,50.21,0,0,0-11.33-13.1,53.52,53.52,0,0,0-16.9-9.27,20.13,20.13,0,0,0-2.41-.7c-.82-.21-1.63-.45-2.46-.62a47.79,47.79,0,0,0-5.06-.73c-.86,0-1.71-.2-2.57-.17H32.73c-.86,0-1.72.14-2.58.2-.43.05-.86.07-1.29.13L27.58,9a36.92,36.92,0,0,0-5,1.3l-2.41,1a8.49,8.49,0,0,0-1.17.58l-1.14.64a25.41,25.41,0,0,0-7.69,6.93A26.92,26.92,0,0,0,5.88,39.28l.18,1.29c.08.43.2.84.3,1.27.21.83.37,1.69.64,2.51l.84,2.44c.25.83.67,1.58,1,2.38a46.37,46.37,0,0,0,2.33,4.55c.43.73.92,1.42,1.37,2.13A21.71,21.71,0,0,0,14,57.91l1.54,2c.51.66,1.11,1.24,1.65,1.85s1.09,1.25,1.69,1.79l1.77,1.65.89.82.95.76,1.89,1.5c1.23.93,2.58,1.77,3.84,2.65a50,50,0,0,0,16.08,6.5A39.15,39.15,0,0,0,59,77.77a30.09,30.09,0,0,0,10.64-3.91,27.1,27.1,0,0,0,5.6-4.73Z" style="fill:#fff"></path><circle cx="55.82" cy="78.55" r="3.18" style="fill:#5762ac"></circle><circle cx="40.08" cy="76.38" r="3.18" style="fill:#7a84ba"></circle><circle cx="26.26" cy="70.62" r="3.18" style="fill:#b4bee1"></circle><circle cx="15.65" cy="61.22" r="3.18" style="fill:#dfe3f3"></circle><rect x="89.98" y="57.37" width="207.45" height="3" style="fill:url(#linear-gradient)"></rect><path d="M93.05,70.28a.15.15,0,0,0-.13.1l-.79,2.33a3,3,0,0,0-.18.88.42.42,0,0,0,.47.38h.12c.13,0,.17,0,.17.08s-.12.1-.23.1c-.32,0-.85,0-1,0s-.87,0-1.48,0c-.18,0-.25,0-.25-.1s.06-.08.18-.08a1.71,1.71,0,0,0,.31,0c.61-.08.87-.58,1.11-1.23l3-8.16c.16-.44.21-.51.29-.51s.13.06.29.47,2.26,5.92,3.06,7.92c.47,1.17.85,1.38,1.13,1.46a1.62,1.62,0,0,0,.51.08c.08,0,.15,0,.15.08s-.12.1-.27.1-1.15,0-2.06,0c-.25,0-.39,0-.39-.1s0-.07.09-.09.16-.14.08-.35L96,70.36a.12.12,0,0,0-.12-.08Zm2.66-.48c.06,0,.06,0,.05-.09l-1.25-3.55c-.06-.19-.13-.19-.2,0l-1.15,3.55c0,.07,0,.09,0,.09Z" style="fill:#2c2e85"></path><path d="M101.51,68.94c0-1.74,0-2.07,0-2.41s-.13-.54-.51-.61a2.25,2.25,0,0,0-.38,0c-.07,0-.13,0-.13-.08s.07-.11.19-.11c.54,0,1.37,0,1.41,0s.77,0,1.51,0c1.16,0,3.31-.11,4.7,1.29a3.89,3.89,0,0,1,1.12,2.83A4.53,4.53,0,0,1,108.14,73a4.63,4.63,0,0,1-3.51,1.28c-.5,0-1.14,0-1.64-.06l-.95-.07-.44,0-.76,0c-.12,0-.19,0-.19-.09s0-.09.15-.09a1.08,1.08,0,0,0,.3,0c.22,0,.3-.32.34-.61a19.93,19.93,0,0,0,.07-2.44Zm1.07,1.11c0,1.19,0,2.21,0,2.41a2.11,2.11,0,0,0,.13.88c.14.22.56.5,1.93.5a3.29,3.29,0,0,0,3.59-3.64,3.89,3.89,0,0,0-1.13-2.83,4.8,4.8,0,0,0-3.71-1.24,2.09,2.09,0,0,0-.67.09.21.21,0,0,0-.14.22c0,.38,0,1.5,0,2.29Z" style="fill:#2c2e85"></path><path d="M111.26,66.78c-.26-.62-.35-.77-.83-.85a2.75,2.75,0,0,0-.39,0c-.11,0-.16,0-.16-.09s.09-.1.21-.1c.61,0,1.37,0,1.5,0s.73,0,1.22,0c.16,0,.21,0,.21.08s0,.11-.2.11a1.3,1.3,0,0,0-.4.06.22.22,0,0,0-.12.23,2.58,2.58,0,0,0,.21.65l2.31,5.81c.66-1.46,2.17-5.27,2.41-6a1.72,1.72,0,0,0,.1-.44.19.19,0,0,0-.12-.21,1.31,1.31,0,0,0-.42,0c-.09,0-.17,0-.17-.08s0-.11.2-.11c.47,0,1.1,0,1.25,0s.57,0,.9,0c.13,0,.2,0,.2.08s0,.11-.15.11a1,1,0,0,0-.56.13c-.14.11-.3.26-.62,1-.06.16-.72,1.67-1.31,3-.7,1.63-1.24,2.86-1.46,3.31-.35.72-.39.92-.53.92s-.22-.16-.44-.74Z" style="fill:#2c2e85"></path><path d="M120.82,71a.15.15,0,0,0-.14.1l-.57,1.64a3.48,3.48,0,0,0-.23.94c0,.23.15.34.44.34h.09c.12,0,.16,0,.16.09s-.11.09-.2.09c-.29,0-.89,0-1,0s-.71,0-1.26,0c-.14,0-.21,0-.21-.09s0-.09.16-.09h.26c.57-.06.79-.49,1-1L121.92,66c.14-.38.18-.44.28-.44s.11,0,.26.42,2,5,2.67,6.66c.43,1,.81,1.21,1,1.27a1.2,1.2,0,0,0,.45.07c.09,0,.16,0,.16.09s0,.09-.2.09-1.12,0-2,0c-.25,0-.32,0-.32-.1s0-.07.09-.09.13-.09,0-.29l-1-2.64a.1.1,0,0,0-.1-.06Zm2.23-.46s0,0,0-.08l-1-2.91c-.06-.18-.08-.18-.14,0l-1,2.91s0,.08,0,.08Z" style="fill:#2c2e85"></path><path d="M128,66.09c0-.41,0-.54.15-.54s.31.26.4.35l3.79,3.88c1,1,2.33,2.35,2.68,2.66L134.85,67c0-.71-.09-1-.44-1a3.3,3.3,0,0,0-.52,0c-.13,0-.15,0-.15-.11s.1-.08.23-.08c.57,0,1.12,0,1.24,0s.54,0,1,0c.14,0,.18,0,.18.08s0,.1-.12.11a2.74,2.74,0,0,0-.32,0c-.31.06-.4.2-.4,1l0,6.6c0,.66,0,.72-.11.72s-.23-.09-.87-.7c-.05,0-1.88-1.83-3-3l-3-3.13.17,5.14c0,.91.1,1.25.43,1.33a2.42,2.42,0,0,0,.54,0c.11,0,.16,0,.16.09s-.07.09-.21.09c-.71,0-1.18,0-1.28,0s-.57,0-1.14,0c-.12,0-.19,0-.19-.09s0-.09.18-.09a1.4,1.4,0,0,0,.41,0c.28-.1.35-.45.35-1.41C128,66.24,128,68.27,128,66.09Z" style="fill:#2c2e85"></path><path d="M139.46,73.1a4.27,4.27,0,0,1-1.41-3.35,4.38,4.38,0,0,1,1.33-3,4.76,4.76,0,0,1,3.53-1.17,11.75,11.75,0,0,1,1.74.14c.42.07.84.13,1.15.15.11,0,.12.06.12.13s0,.22-.07.64,0,1,0,1.21,0,.25-.11.25-.1-.08-.1-.25a1.57,1.57,0,0,0-.51-1.14,4,4,0,0,0-2.33-.67,3.43,3.43,0,0,0-2.52.76,3.5,3.5,0,0,0-1,2.88,4.11,4.11,0,0,0,4.08,4.1,2.75,2.75,0,0,0,2-.54,1.82,1.82,0,0,0,.44-.95c0-.13.06-.2.14-.2s.07.1.07.19a11.41,11.41,0,0,1-.27,1.46c-.08.21-.11.25-.3.32a6.23,6.23,0,0,1-2.07.27A5.53,5.53,0,0,1,139.46,73.1Z" style="fill:#2c2e85"></path><path d="M148.57,68.94c0-1.74,0-2,0-2.41s-.11-.55-.38-.6a2.27,2.27,0,0,0-.3,0q-.15,0-.15-.09c0-.07,0-.1.2-.1.41,0,1.16,0,1.19,0s.82,0,1.19,0c.13,0,.19,0,.19.1s0,.08-.14.09l-.24,0c-.38,0-.42.24-.44.63s0,.65,0,2.39v2a22.38,22.38,0,0,0,.06,2.4c.05.38.1.53.44.61a2.92,2.92,0,0,0,.5,0c.12,0,.15,0,.15.09s-.06.09-.19.09c-.67,0-1.43,0-1.5,0s-.81,0-1.18,0c-.12,0-.21,0-.21-.09s0-.09.17-.09a1.39,1.39,0,0,0,.32,0c.22-.05.26-.32.3-.63a21.89,21.89,0,0,0,.07-2.39Z" style="fill:#2c2e85"></path><path d="M153.36,66.09c0-.41,0-.54.15-.54s.31.26.41.35,1.94,2,3.78,3.88c1,1,2.34,2.35,2.68,2.66L160.24,67c0-.71-.1-1-.45-1a3.11,3.11,0,0,0-.51,0c-.14,0-.16,0-.16-.11s.1-.08.24-.08c.56,0,1.11,0,1.23,0s.54,0,1,0c.15,0,.19,0,.19.08s0,.1-.12.11a2.86,2.86,0,0,0-.33,0c-.3.06-.4.2-.4,1l0,6.6c0,.66,0,.72-.12.72s-.22-.09-.87-.7c-.05,0-1.88-1.83-3-3l-3-3.13.17,5.14c0,.91.11,1.25.44,1.33a2.37,2.37,0,0,0,.54,0c.1,0,.15,0,.15.09s-.06.09-.21.09c-.71,0-1.18,0-1.27,0s-.58,0-1.14,0c-.12,0-.2,0-.2-.09s.05-.09.18-.09a1.4,1.4,0,0,0,.41,0c.29-.1.35-.45.35-1.41C153.36,66.24,153.38,68.27,153.36,66.09Z" style="fill:#2c2e85"></path><path d="M171.28,73.18c0,.53,0,.54-.16.62a6.54,6.54,0,0,1-6.27-.69,4.13,4.13,0,0,1-1.42-3.19,4.2,4.2,0,0,1,2-3.7,5.76,5.76,0,0,1,2.93-.67,10.25,10.25,0,0,1,1.88.18,8.85,8.85,0,0,0,1,.12c.1,0,.1.05.1.1a15.28,15.28,0,0,0-.09,1.71c0,.19,0,.24-.11.24s-.08-.08-.09-.16a1.66,1.66,0,0,0-.25-.81,3.42,3.42,0,0,0-2.72-.92,3.61,3.61,0,0,0-2.42.69,3.47,3.47,0,0,0-1.1,2.81,4.5,4.5,0,0,0,1.2,3,4.08,4.08,0,0,0,3,1.22,3.23,3.23,0,0,0,1.25-.22.44.44,0,0,0,.22-.39v-1.9c0-.86-.07-1-.53-1.1l-.31,0c-.11,0-.16-.06-.16-.1s.05-.09.2-.09c.52,0,1.29,0,1.34,0l1.18,0c.13,0,.18,0,.18.09s0,.1-.15.1h-.23c-.31,0-.39.27-.42.66s0,.7,0,1.18Z" style="fill:#2c2e85"></path><path d="M179.42,72.92A5,5,0,0,1,177.83,69a5.25,5.25,0,0,1,1.47-3.59,5.3,5.3,0,0,1,4-1.4,12.07,12.07,0,0,1,1.9.15c.5.1.91.14,1.39.2.1,0,.12.07.12.15s0,.26-.06.73,0,1.16,0,1.35,0,.28-.12.28-.11-.09-.11-.28a1.83,1.83,0,0,0-.55-1.34,4.4,4.4,0,0,0-2.62-.74,4.06,4.06,0,0,0-3,.95A4.39,4.39,0,0,0,179,68.92a4.74,4.74,0,0,0,4.74,4.81,3,3,0,0,0,2.29-.66,2.4,2.4,0,0,0,.49-1.1c0-.14.05-.2.13-.2s.09.1.09.2a13.77,13.77,0,0,1-.29,1.68c-.08.25-.11.28-.34.38a7.65,7.65,0,0,1-2.37.31A6.07,6.07,0,0,1,179.42,72.92Z" style="fill:#2c2e85"></path><path d="M190.58,71a.13.13,0,0,0-.13.1l-.58,1.64a3.48,3.48,0,0,0-.23.94c0,.23.15.34.44.34h.09c.12,0,.16,0,.16.09s-.11.09-.2.09c-.29,0-.89,0-1,0s-.71,0-1.26,0c-.14,0-.21,0-.21-.09s0-.09.16-.09H188c.57-.06.79-.49,1-1L191.68,66c.15-.38.19-.44.28-.44s.12,0,.26.42,2,5,2.67,6.66c.43,1,.81,1.21,1,1.27a1.15,1.15,0,0,0,.44.07c.09,0,.16,0,.16.09s-.05.09-.2.09-1.11,0-2,0c-.25,0-.33,0-.33-.1s0-.07.09-.09.13-.09.05-.29l-1-2.64A.1.1,0,0,0,193,71Zm2.23-.46c.05,0,.05,0,0-.08l-1-2.91c-.06-.18-.08-.18-.14,0l-1,2.91s0,.08,0,.08Z" style="fill:#2c2e85"></path><path d="M198.11,68.94c0-1.74,0-2,0-2.41s-.11-.55-.52-.63l-.32,0c-.09,0-.14,0-.14-.08s0-.1.16-.1c.56,0,1.36,0,1.39,0s1,0,1.38,0a3.73,3.73,0,0,1,2.15.5,2,2,0,0,1,.79,1.61,3.26,3.26,0,0,1-1.39,2.48c1,1.18,1.75,2.15,2.42,2.85a2.19,2.19,0,0,0,1.39.8,3.43,3.43,0,0,0,.41,0c.1,0,.14,0,.14.09s-.05.09-.24.09h-.92a2.9,2.9,0,0,1-1.19-.16c-.55-.23-1-.82-1.63-1.7-.51-.63-1-1.34-1.26-1.62a.19.19,0,0,0-.16-.08h-1.35c-.05,0-.07,0-.07.06v.19a23.06,23.06,0,0,0,.07,2.48c0,.32.08.58.51.63l.38,0c.12,0,.17,0,.17.08s-.05.1-.18.1c-.68,0-1.42,0-1.47,0-.21,0-.79,0-1.15,0-.13,0-.18,0-.18-.1s.08-.08.16-.08a1,1,0,0,0,.29,0c.22,0,.3-.18.34-.5s.05-1.55.05-2.53Zm1,.93a.18.18,0,0,0,.07.16,3.39,3.39,0,0,0,1.17.17,1.6,1.6,0,0,0,.88-.2,1.91,1.91,0,0,0,.65-1.67c0-1.43-.76-2.22-1.93-2.22a3.42,3.42,0,0,0-.76.07.11.11,0,0,0-.08.12Z" style="fill:#2c2e85"></path><path d="M206.63,68.94c0-1.72,0-2,0-2.39s-.12-.56-.5-.63a1.48,1.48,0,0,0-.31,0c-.09,0-.17,0-.17-.08s.06-.11.19-.11.62,0,1.36,0h2.66a2.28,2.28,0,0,0,.52-.06.33.33,0,0,1,.14,0s0,0,0,.09-.07.26-.1.59,0,.43,0,.68,0,.2-.09.2-.09,0-.09-.15a1.52,1.52,0,0,0-.1-.42c-.08-.26-.19-.35-.85-.39l-1.5,0s-.06,0-.06.11v3c0,.08,0,.13.07.13s1.5,0,1.78,0,.5,0,.6-.19.09-.11.15-.11.05,0,.05.08-.05.32-.09.7,0,.63-.05.8,0,.14-.1.14-.08-.08-.08-.17a1.8,1.8,0,0,0,0-.31c-.06-.17-.14-.36-.64-.4-.3,0-1.36,0-1.57,0s-.09,0-.09.09v1c0,.41,0,1.56,0,1.79,0,.48.09.73.36.85a2.56,2.56,0,0,0,1,.12,4,4,0,0,0,1-.08c.4-.12.49-.38.59-.87,0-.13.07-.18.12-.18s.08.12.08.2-.11.92-.14,1.14-.15.29-.58.29c-.87,0-1.24,0-1.7,0s-1.06,0-1.55,0c-.3,0-.55,0-.87,0-.11,0-.18,0-.18-.09s0-.09.12-.09a.82.82,0,0,0,.26,0c.24-.05.4-.22.42-1,0-.45,0-1,0-2Z" style="fill:#2c2e85"></path><path d="M213.48,68.94c0-1.72,0-2,0-2.39s-.12-.56-.5-.63a1.48,1.48,0,0,0-.31,0c-.1,0-.17,0-.17-.08s.06-.11.19-.11.62,0,1.36,0h2.66a2.09,2.09,0,0,0,.51-.06.37.37,0,0,1,.15,0s0,0,0,.09a4.89,4.89,0,0,0-.1.59c0,.22,0,.43,0,.68s0,.2-.09.2-.1,0-.1-.15a1.26,1.26,0,0,0-.09-.42c-.08-.26-.2-.35-.85-.39l-1.5,0s-.07,0-.07.11v3c0,.08,0,.13.08.13s1.5,0,1.78,0,.5,0,.6-.19.09-.11.15-.11.05,0,.05.08-.05.32-.09.7,0,.63-.06.8,0,.14-.09.14-.08-.08-.08-.17a1.2,1.2,0,0,0,0-.31c0-.17-.13-.36-.63-.4-.3,0-1.36,0-1.57,0s-.1,0-.1.09v1c0,.41,0,1.56,0,1.79,0,.48.1.73.37.85a2.56,2.56,0,0,0,1,.12,4,4,0,0,0,1-.08c.39-.12.49-.38.59-.87,0-.13.07-.18.12-.18s.08.12.08.2-.11.92-.15,1.14-.14.29-.57.29c-.87,0-1.24,0-1.7,0s-1.06,0-1.55,0c-.3,0-.55,0-.87,0-.11,0-.18,0-.18-.09s0-.09.12-.09a.82.82,0,0,0,.26,0c.24-.05.39-.22.42-1,0-.45,0-1,0-2Z" style="fill:#2c2e85"></path><path d="M220.34,68.94c0-1.74,0-2,0-2.41s-.12-.55-.52-.63l-.32,0c-.09,0-.14,0-.14-.08s0-.1.15-.1c.57,0,1.37,0,1.4,0s1,0,1.38,0a3.74,3.74,0,0,1,2.15.5,2,2,0,0,1,.79,1.61,3.26,3.26,0,0,1-1.39,2.48c1,1.18,1.75,2.15,2.42,2.85a2.17,2.17,0,0,0,1.39.8,3.28,3.28,0,0,0,.4,0c.11,0,.15,0,.15.09s0,.09-.24.09H227a2.9,2.9,0,0,1-1.19-.16c-.55-.23-.95-.82-1.63-1.7-.51-.63-1-1.34-1.26-1.62-.06,0-.08-.08-.16-.08h-1.35c-.06,0-.07,0-.07.06v.19a23.06,23.06,0,0,0,.07,2.48c0,.32.08.58.51.63l.38,0c.12,0,.17,0,.17.08s0,.1-.18.1c-.69,0-1.42,0-1.48,0s-.78,0-1.14,0c-.13,0-.18,0-.18-.1s.08-.08.16-.08a.92.92,0,0,0,.28,0c.23,0,.31-.18.35-.5s.05-1.55.05-2.53Zm1,.93c0,.07,0,.13.07.16a3.39,3.39,0,0,0,1.17.17,1.6,1.6,0,0,0,.88-.2,1.91,1.91,0,0,0,.65-1.67c0-1.43-.76-2.22-1.93-2.22a3.42,3.42,0,0,0-.76.07.11.11,0,0,0-.08.12Z" style="fill:#2c2e85"></path><path d="M229,74c-.17-.08-.17-.13-.17-.45,0-.6,0-1,.05-1.23s0-.19.11-.19.09,0,.09.13a1.66,1.66,0,0,0,0,.4,1.58,1.58,0,0,0,1.71,1.18,1.47,1.47,0,0,0,1.61-1.41c0-.74-.34-1.2-1.3-2l-.53-.41c-1.26-1-1.52-1.7-1.52-2.48,0-1.21,1-2,2.43-2a5,5,0,0,1,1.07.1,2.52,2.52,0,0,0,.44.07c.09,0,.12,0,.12.08s0,.51,0,1.27c0,.2,0,.28-.09.28s-.08-.06-.1-.15a1.77,1.77,0,0,0-.15-.61c-.07-.12-.37-.62-1.48-.62a1.25,1.25,0,0,0-1.37,1.26c0,.62.31,1,1.4,1.82l.3.24c1.37,1,1.72,1.75,1.72,2.68a2.3,2.3,0,0,1-1,1.87,3.31,3.31,0,0,1-1.78.46A3.76,3.76,0,0,1,229,74Z" style="fill:#2c2e85"></path><path d="M240.61,68.94c0-1.74,0-2,0-2.41s-.1-.55-.38-.6a2.27,2.27,0,0,0-.3,0c-.09,0-.14,0-.14-.09s.05-.1.19-.1c.41,0,1.16,0,1.2,0s.81,0,1.18,0c.13,0,.2,0,.2.1s0,.08-.15.09l-.23,0c-.38,0-.42.24-.45.63s0,.65,0,2.39v2a23,23,0,0,0,.05,2.4c0,.38.1.53.45.61a2.84,2.84,0,0,0,.5,0c.11,0,.14,0,.14.09s-.05.09-.19.09c-.66,0-1.43,0-1.49,0s-.82,0-1.18,0c-.12,0-.21,0-.21-.09s.05-.09.17-.09a1.31,1.31,0,0,0,.31,0c.22-.05.26-.32.3-.63a21.89,21.89,0,0,0,.07-2.39Z" style="fill:#2c2e85"></path><path d="M245.41,66.09c0-.41,0-.54.14-.54s.32.26.41.35l3.78,3.88c1,1,2.34,2.35,2.68,2.66L252.28,67c0-.71-.09-1-.45-1a3.11,3.11,0,0,0-.51,0c-.13,0-.16,0-.16-.11s.11-.08.24-.08c.56,0,1.12,0,1.23,0s.54,0,1.05,0c.15,0,.19,0,.19.08s0,.1-.12.11a3.14,3.14,0,0,0-.33,0c-.3.06-.39.2-.39,1l0,6.6c0,.66,0,.72-.12.72s-.22-.09-.86-.7c-.06,0-1.88-1.83-3-3l-3-3.13.17,5.14c0,.91.1,1.25.43,1.33a2.37,2.37,0,0,0,.54,0c.1,0,.16,0,.16.09s-.07.09-.21.09c-.71,0-1.19,0-1.28,0s-.58,0-1.14,0c-.12,0-.2,0-.2-.09s0-.09.19-.09a1.34,1.34,0,0,0,.4,0c.29-.1.36-.45.36-1.41C245.41,66.24,245.42,68.27,245.41,66.09Z" style="fill:#2c2e85"></path><path d="M260.52,74c-.18-.09-.19-.14-.19-.5,0-.65.05-1.18.06-1.39s0-.21.11-.21.09,0,.09.14a2.29,2.29,0,0,0,0,.49,1.79,1.79,0,0,0,1.94,1.34,1.75,1.75,0,0,0,1.88-1.75c0-.9-.38-1.43-1.51-2.36l-.59-.49c-1.39-1.14-1.71-2-1.71-2.85,0-1.4,1.05-2.36,2.72-2.36a5,5,0,0,1,1.22.13,2.23,2.23,0,0,0,.46.06c.11,0,.14,0,.14.1s-.06.49-.06,1.39c0,.21,0,.3-.09.3s-.09-.07-.1-.17a3.05,3.05,0,0,0-.17-.66c-.08-.14-.44-.69-1.65-.69A1.49,1.49,0,0,0,261.5,66c0,.75.34,1.22,1.6,2.21l.37.29c1.55,1.22,1.92,2,1.92,3.08a2.71,2.71,0,0,1-1.12,2.18,3.45,3.45,0,0,1-2,.56A4.05,4.05,0,0,1,260.52,74Z" style="fill:#2c2e85"></path><path d="M268.18,68.94c0-1.82,0-2,0-2.41s-.13-.55-.5-.63l-.41,0s-.08,0-.08-.07.07-.11.19-.11c.56,0,1.29,0,1.36,0,.28,0,1,0,1.49,0a2.91,2.91,0,0,1,2.15.64,2,2,0,0,1,.58,1.47,2.62,2.62,0,0,1-2.85,2.52h-.25c-.05,0-.12,0-.12-.08s.08-.11.33-.11A1.82,1.82,0,0,0,272,68.27a2.23,2.23,0,0,0-.57-1.59,2,2,0,0,0-1.63-.62,1.18,1.18,0,0,0-.44.07c-.07,0-.08.11-.08.21v4.54c0,1,0,2,0,2.43,0,.32.1.58.46.62a3.75,3.75,0,0,0,.52,0c.06,0,.08,0,.08.07s0,.1-.18.1c-.68,0-1.42,0-1.49,0s-.78,0-1.15,0c-.12,0-.19,0-.19-.1s0-.07.1-.07a1.47,1.47,0,0,0,.34,0c.23,0,.3-.3.34-.62a22.1,22.1,0,0,0,.07-2.4Z" style="fill:#2c2e85"></path><path d="M275.73,71a.15.15,0,0,0-.13.1L275,72.69a3.39,3.39,0,0,0-.22.94c0,.23.14.34.43.34h.1c.11,0,.15,0,.15.09s-.1.09-.19.09c-.29,0-.9,0-1,0s-.71,0-1.26,0c-.15,0-.21,0-.21-.09s.05-.09.16-.09h.26c.56-.06.79-.49,1-1L276.84,66c.14-.38.18-.44.27-.44s.12,0,.27.42,2,5,2.66,6.66c.44,1,.82,1.21,1,1.27a1.17,1.17,0,0,0,.45.07c.09,0,.15,0,.15.09s-.05.09-.19.09-1.12,0-2,0c-.25,0-.33,0-.33-.1s0-.07.09-.09.14-.09.06-.29l-1-2.64a.11.11,0,0,0-.11-.06Zm2.24-.46s0,0,0-.08l-1-2.91c-.07-.18-.08-.18-.15,0l-1,2.91s0,.08,0,.08Z" style="fill:#2c2e85"></path><path d="M283.48,73.1a4.27,4.27,0,0,1-1.41-3.35,4.38,4.38,0,0,1,1.33-3,4.76,4.76,0,0,1,3.53-1.17,11.62,11.62,0,0,1,1.73.14c.43.07.85.13,1.16.15.11,0,.12.06.12.13s0,.22-.07.64,0,1,0,1.21,0,.25-.11.25-.1-.08-.1-.25a1.54,1.54,0,0,0-.52-1.14A3.9,3.9,0,0,0,286.8,66a3.43,3.43,0,0,0-2.52.76,3.5,3.5,0,0,0-1,2.88,4.11,4.11,0,0,0,4.08,4.1,2.75,2.75,0,0,0,2-.54,1.82,1.82,0,0,0,.44-.95c0-.13.06-.2.14-.2s.07.1.07.19a13.49,13.49,0,0,1-.27,1.46c-.08.21-.12.25-.3.32a6.25,6.25,0,0,1-2.08.27A5.52,5.52,0,0,1,283.48,73.1Z" style="fill:#2c2e85"></path><path d="M292.59,68.94c0-1.72,0-2,0-2.39s-.12-.56-.5-.63a1.51,1.51,0,0,0-.32,0c-.09,0-.17,0-.17-.08s.07-.11.2-.11.62,0,1.35,0h2.67a2.17,2.17,0,0,0,.51-.06.37.37,0,0,1,.15,0s.05,0,.05.09a4.89,4.89,0,0,0-.1.59c0,.22,0,.43,0,.68s0,.2-.1.2-.09,0-.09-.15a1.26,1.26,0,0,0-.09-.42c-.08-.26-.2-.35-.85-.39l-1.5,0s-.07,0-.07.11v3c0,.08,0,.13.08.13s1.5,0,1.78,0,.49,0,.6-.19.09-.11.14-.11.06,0,.06.08-.06.32-.09.7,0,.63-.06.8,0,.14-.09.14-.08-.08-.08-.17a1.2,1.2,0,0,0,0-.31c0-.17-.13-.36-.63-.4-.3,0-1.36,0-1.57,0s-.1,0-.1.09v1c0,.41,0,1.56,0,1.79,0,.48.1.73.37.85a2.53,2.53,0,0,0,1,.12,4,4,0,0,0,1-.08c.39-.12.48-.38.59-.87,0-.13.06-.18.12-.18s.08.12.08.2-.11.92-.15,1.14-.14.29-.58.29c-.86,0-1.23,0-1.69,0s-1.06,0-1.55,0c-.3,0-.55,0-.87,0-.12,0-.18,0-.18-.09s.05-.09.12-.09a.87.87,0,0,0,.26,0c.24-.05.39-.22.42-1,0-.45,0-1,0-2Z" style="fill:#2c2e85"></path></g></g></svg> 